<?xml version="1.0" encoding="utf-8"?>
<!-- Generator: Adobe Illustrator 22.0.0, SVG Export Plug-In . SVG Version: 6.00 Build 0)  -->
<svg version="1.1" id="图层_4" xmlns="http://www.w3.org/2000/svg" xmlns:xlink="http://www.w3.org/1999/xlink" x="0px" y="0px"
	 viewBox="0 0 500 500" style="enable-background:new 0 0 500 500;" xml:space="preserve">
<style type="text/css">
	.st0{fill:#B69374;}
	.st1{fill:#003E84;}
</style>
<g>
	<g>
		<path class="st0" d="M396.9,165.6c-11.1-12.8-23.6-24.2-37.4-34.1c-4.3-3.1-8.7-5.9-13.2-8.7c-31.6-19.1-68.7-30.1-108.2-30.1
			c-34.8,0-67.6,8.5-96.5,23.5c3.5,2.5,8.1,5.5,13.3,8.5c25.3-11.9,53.4-18.5,83.2-18.5c39.8,0,76.9,11.9,107.9,32.4
			c4.8,3.2,9.5,6.5,14,10.1c10.4,8.3,20,17.5,28.5,27.7c-6,7.1-12.4,13.7-19.3,19.9c-3.6,3.2-7.3,6.3-11.2,9.3
			c-2.3,1.8-4.7,3.6-7.1,5.3c0,0,0,0-0.1,0c-4.1,2.9-8.3,5.6-12.6,8.2c0,0,0,0,0.1,0c-29.3,17.5-63.6,27.5-100.2,27.5
			c-30.8,0-60-7.2-86-19.9c-4.7,2.5-9.4,5.2-13.9,8.1c29.7,16.2,63.8,25.3,99.9,25.3c41.5,0,80.2-12.1,112.8-32.9
			c4-2.6,8-5.3,11.9-8.2c0.2-0.1,0.3-0.2,0.5-0.3c3.8-2.8,7.4-5.7,11-8.8c8.2-7,15.8-14.5,22.8-22.6c3.1-3.5,6-7.2,8.8-10.9
			C402.9,172.8,400,169.2,396.9,165.6z M79.1,165.6c-0.2,0.2-0.3,0.4-0.5,0.6c-9.7-11.3-20.6-21.6-32.5-30.6c-1.5-1.1-3-2.2-4.5-3.3
			c-0.7-0.5-1.4-1-2.1-1.5c-3.6-2.5-7.3-5-11.1-7.3c-3-1.8-6-3.6-9.1-5.3c0,0,20,35.2,20.4,86.4c3.5,10.3,8.3,20.4,11.9,27.2
			c4.4-34.2-0.9-63-4.8-78.4c8.4,7.2,16.2,15.1,23.3,23.6c3,3.6,5.9,7.3,8.7,11.1c0.2-0.2,0.3-0.4,0.5-0.6c2.6-3.6,5.3-7.1,8.2-10.5
			c0.1-0.1,0.2-0.3,0.4-0.4c8.3-9.8,17.5-18.9,27.6-26.9c-3.4-2.2-7.2-4.9-11.4-8.2C94.9,148.8,86.7,156.9,79.1,165.6z"/>
		<path id="XMLID_751_" class="st1" d="M424.5,206.6c-4.4,34.2,0.9,63,4.8,78.4c-8.4-7.2-16.2-15.1-23.3-23.6
			c-3-3.6-5.9-7.3-8.7-11.1c-0.2,0.2-0.3,0.4-0.5,0.6c-2.6,3.6-5.3,7.1-8.2,10.5c-0.1,0.1-0.2,0.3-0.4,0.4
			C352.3,304.7,298.3,332,238,332c-39.8,0-76.9-11.9-107.9-32.4c-4.8-3.2-9.5-6.5-14-10.1c-10.4-8.3-20-17.5-28.5-27.7
			c6-7.1,12.4-13.7,19.3-19.9c3.6-3.2,7.3-6.3,11.2-9.3c2.3-1.8,4.7-3.6,7.1-5.3c0,0,0,0,0.1,0c4.1-2.9,8.3-5.6,12.6-8.2
			c0,0,0,0-0.1,0c29.3-17.5,63.6-27.5,100.2-27.5c30.8,0,60,7.2,86,19.9c4.7-2.5,9.4-5.2,13.9-8.1c-29.7-16.2-63.8-25.3-99.9-25.3
			c-41.5,0-80.2,12.1-112.8,32.9c-4,2.6-8,5.3-11.9,8.2c-0.2,0.1-0.3,0.2-0.5,0.3c-3.8,2.8-7.4,5.7-11,8.8
			c-8.2,7-15.8,14.5-22.8,22.6c-3.1,3.5-6,7.2-8.8,10.9c2.8,3.7,5.7,7.4,8.8,10.9c11.1,12.8,23.6,24.2,37.4,34.1
			c4.3,3.1,8.7,5.9,13.2,8.7c31.6,19.1,68.7,30.1,108.2,30.1c63.4,0,120.4-28.3,158.9-72.8c0.2-0.2,0.3-0.4,0.5-0.6
			c9.7,11.3,20.6,21.6,32.5,30.6c1.5,1.1,3,2.2,4.5,3.3c0.7,0.5,1.4,1,2.1,1.5c3.6,2.5,7.3,5,11.1,7.3c3,1.8,6,3.6,9.1,5.3
			c0,0-20-35.2-20.4-86.4C432.9,223.5,428.1,213.4,424.5,206.6z M101.9,121.7c3.6,3,7.2,6,11,8.8c0.2,0.1,0.3,0.2,0.5,0.3
			c3.9,2.8,7.8,5.6,11.9,8.2c13,8.3,27.1,15.2,41.9,20.6c4.6-3.4,9.3-6.6,14.2-9.6c-15.4-4.6-30-11.1-43.5-19.2c0,0,0,0,0.1,0
			c-4.3-2.6-8.5-5.3-12.6-8.2c0,0,0,0-0.1,0c-2.4-1.7-4.8-3.5-7.1-5.3c-3.8-3-7.6-6.1-11.2-9.3c-6.9-6.2-13.3-12.8-19.3-19.9
			c8.5-10.2,18.1-19.4,28.5-27.7c4.5-3.6,9.2-6.9,14-10.1C161.1,30,198.2,18,238,18c60.3,0,114.3,27.3,150.4,70.2
			c0.1,0.1,0.2,0.3,0.4,0.4c2.8,3.4,5.6,6.9,8.2,10.5c0.2,0.2,0.3,0.4,0.5,0.6c2.8-3.8,5.6-7.5,8.7-11.1
			c7.1-8.5,14.9-16.4,23.3-23.6c-3.9,15.4-9.2,44.2-4.8,78.4c3.5-6.8,8.4-16.9,11.9-27.2c0.3-51.2,20.4-86.4,20.4-86.4
			c-3.1,1.7-6.1,3.4-9.1,5.3c-3.8,2.3-7.5,4.8-11.1,7.3c-0.7,0.5-1.4,1-2.1,1.5c-1.5,1.1-3,2.2-4.5,3.3c-11.9,9-22.8,19.3-32.5,30.6
			c-0.2-0.2-0.3-0.4-0.5-0.6C358.4,32.7,301.4,4.5,238,4.5c-39.6,0-76.6,11-108.2,30.1c-4.5,2.7-8.9,5.6-13.2,8.7
			c-13.8,9.8-26.4,21.3-37.4,34.1c-3.1,3.5-6,7.2-8.8,10.9c2.8,3.7,5.7,7.4,8.8,10.9C86.1,107.2,93.8,114.8,101.9,121.7z"/>
	</g>
	<g>
		<g id="XMLID_748_">
			<g>
				<path class="st1" d="M54.9,380.4h-7.4V394H15.6v7.4h31.2c-1,7.9-4.1,14.2-7.6,19.7c-6.2,9.7-14.1,15.9-23.6,18.7v7.6
					c5.9-1.2,10.8-3.1,14.7-5.9c7-5,12.7-11.2,17-18.6c0.9-1.6,2.2-4.2,3.8-7.7c2.3,4.8,4.4,8.6,6.3,11.2c3.8,5.5,8,10,12.5,13.5
					c5.8,4.5,11.5,7,16.8,7.4v-7.5c-4.5-1.2-8.8-3.4-12.9-6.5c-6-4.7-10.9-10.7-14.6-19c-2.1-4.6-3.3-9.3-3.7-12.9h31.2V394H54.9
					V380.4z"/>
				<path class="st1" d="M204.5,436.7c0,1.1-0.8,2.2-1.3,2.7c-0.8,0.7-1.9,1.1-3.1,1.1h-9.3v6.9h10.7c3.3,0,5.9-1,7.7-3.1
					c1.6-1.8,2.4-3.9,2.4-6.3v-57.6h-7.1L204.5,436.7z"/>
				<path class="st1" d="M190.8,389.6h-7.1v6.8c0,8.4,0,34-12.7,38.4l2.4,6.7c17.5-6.1,17.5-34.5,17.5-45.2V389.6z"/>
				<path class="st1" d="M231.7,396.3v-6.8h-7.1v6.8c0,10.7,0,39,17.5,45.1l2.4-6.7C231.7,430.4,231.7,404.8,231.7,396.3z"/>
				<path class="st1" d="M158.9,398.3c-0.1,0-1.5,0-2.2,0c0.8-1.2,1.2-1.9,1.3-2c1.1-1.8,1.6-3.4,1.6-4.7c0-2.1-0.8-3.7-2.4-5
					c-1.9-1.5-4.7-2.2-8.4-2.2l-32.3,0c0.6-1.2,1.3-2.6,1.8-4.1l-6.7-2.3c-3.5,10-9.8,11.2-14.9,12.2l-0.6,0.1l1.4,6.9l0.5-0.1
					c3.3-0.6,8.4-1.6,13-5.5h36.7c1.8,0,2.7,0.4,2.7,1.3c0,0.7-1.1,2.6-3.4,5.6h-0.5H102c-5.4,0-8.1,2.7-8.1,8.1V426
					c0,3.8,1.3,6.2,4,7.2c0.8,0.3,2.3,0.5,4.5,0.5l54.4,0.1c3,0,5.1-0.6,6.3-1.9c1.3-1.4,1.9-3.3,1.9-5.9v-20.5
					C164.9,401.3,162.9,398.8,158.9,398.3z M125.8,426.5h-22.1c-1.9,0-2.8-0.8-2.8-2.4v-4.4h24.8V426.5z M125.8,412.7H101v-4.5
					c0-1,0.1-1.6,0.5-2c0.4-0.5,1.2-0.7,2.4-0.7h21.9V412.7z M158,423.9c0,0.9-0.2,1.5-0.4,1.8c-0.4,0.5-1.3,0.8-2.5,0.8H133v-6.7
					h25L158,423.9z M133,412.7v-7.2l22,0c1.1,0,1.9,0.3,2.3,0.7c0.4,0.4,0.6,1.1,0.6,2.1l0,4.4H133z"/>
				<path class="st1" d="M130,438.7c-5-0.6-10.2-1.3-15.1-1.3c-8.5,0-17.4,1.7-21.1,2.4v7.3c1.2-0.3,11.5-2.6,21.1-2.6
					c4.4,0,9.1,0.6,14.2,1.2c5.4,0.7,10.9,1.4,16.4,1.4c8,0,15-1.2,19.4-2.2v-7.3c-3.8,0.9-11,2.4-19.4,2.4
					C140.5,440.1,135.1,439.4,130,438.7z"/>
				<path class="st1" d="M315.5,398.3c-0.1,0-1.5,0-2.2,0c0.8-1.2,1.2-1.9,1.3-2c1.1-1.8,1.6-3.4,1.6-4.7c0-2.1-0.8-3.7-2.4-5
					c-1.9-1.5-4.7-2.2-8.4-2.2l-32.3,0c0.6-1.2,1.3-2.6,1.8-4.1l-6.7-2.3c-3.5,10-9.8,11.2-14.9,12.2l-0.6,0.1l1.4,6.9l0.5-0.1
					c3.3-0.6,8.4-1.6,13-5.5h36.7c1.8,0,2.7,0.4,2.7,1.3c0,0.7-1.1,2.6-3.4,5.6h-0.5h-44.7c-5.4,0-8.1,2.7-8.1,8.1V426
					c0,3.8,1.3,6.2,4,7.2c0.8,0.3,2.3,0.5,4.5,0.5l54.4,0.1c3,0,5.1-0.6,6.3-1.9c1.3-1.4,1.9-3.3,1.9-5.9v-20.5
					C321.5,401.3,319.5,398.8,315.5,398.3z M282.3,426.5h-22.1c-1.9,0-2.8-0.8-2.8-2.4v-4.4h24.8V426.5z M282.3,412.7h-24.8v-4.5
					c0-1,0.1-1.6,0.5-2c0.4-0.5,1.2-0.7,2.4-0.7h21.9V412.7z M314.5,423.9c0,0.9-0.2,1.5-0.4,1.8c-0.4,0.5-1.3,0.8-2.5,0.8h-22.1
					v-6.7h25L314.5,423.9z M289.6,412.7v-7.2l22,0c1.1,0,1.9,0.3,2.3,0.7c0.4,0.4,0.6,1.1,0.6,2.1l0,4.4H289.6z"/>
				<path class="st1" d="M286.6,438.7c-5-0.6-10.2-1.3-15.1-1.3c-8.5,0-17.4,1.7-21.1,2.4v7.3c1.2-0.3,11.5-2.6,21.1-2.6
					c4.4,0,9.1,0.6,14.2,1.2c5.4,0.7,10.9,1.4,16.4,1.4c8,0,15-1.2,19.4-2.2v-7.3c-3.8,0.9-11,2.4-19.4,2.4
					C297,440.1,291.7,439.4,286.6,438.7z"/>
				<path class="st1" d="M398.9,383c-1.3-0.9-3.4-1.3-6.3-1.3h-47.6c-1.8,0-3.2,0.2-4.4,0.6c-1.1,0.4-2.1,1.1-3.2,2.2
					c-1.9,1.9-2.8,4.7-2.8,8.4v42.9c0,2.3,0.2,4,0.7,5.4c0.3,0.9,1,1.9,2,3c1.9,1.9,4.6,2.9,8,2.9H393c4.1,0,7.2-1.5,9.3-4.6
					c0.9-1.4,1.4-3.7,1.4-7.2v-43C403.6,388.1,402.1,385,398.9,383z M396.5,434.6c0,1.8-0.4,3.1-1.1,4c-0.7,0.8-2,1.3-3.9,1.3h-44.3
					c-2,0-3.3-0.4-4.1-1.1c-0.8-0.8-1.3-2.2-1.3-4.2v-40.3c0-1.6,0.2-2.7,0.5-3.3c0.3-0.6,0.8-1.1,1.5-1.5c0.6-0.4,2-0.6,4-0.6h43.1
					c2.1,0,3.6,0.5,4.5,1.4c0.7,0.7,1.1,2.1,1.1,4.1V434.6z"/>
				<polygon class="st1" points="346.5,400.3 365.4,400.3 365.4,409.1 349.1,409.1 349.1,416.2 365.4,416.2 365.4,428.5 
					346.5,428.5 346.5,435.6 391.5,435.6 391.5,428.5 387.5,428.5 387.5,422.2 380.3,422.2 380.3,428.5 372.6,428.5 372.6,416.2 
					389,416.2 389,409.1 372.6,409.1 372.6,400.3 391.5,400.3 391.5,393.2 346.5,393.2 				"/>
				<rect x="442.1" y="383.4" class="st1" width="40.1" height="7.1"/>
				<path class="st1" d="M439.9,399.4v7.1h18.7v28.7c0,1.4-0.3,2.6-1,3.4c-0.8,1-1.7,1.5-2.8,1.5h-3.9v7h5.7c2.5,0,4.7-1,6.7-3.1
					c1.7-1.8,2.5-4.2,2.5-7.3v-30.2h18.6v-7.1H439.9z"/>
				<path class="st1" d="M428.6,381.8h-9.8c-1.7,0-3.2,0.6-4.4,1.8c-1.2,1.3-1.8,3-1.8,5.3v58.2h7.1v-56c0-0.8,0.1-1.3,0.3-1.6
					c0.4-0.5,1-0.7,2-0.7h4.1c1,0,1.6,0.2,2,0.5c0.4,0.4,0.5,1,0.5,1.8v14.6c0,1.4-0.8,2.1-2.3,2.1h-2.6v7.1h2.8
					c1.4,0,2.1,0.8,2.1,2.4v15.5c0,1.6-0.8,2.3-2.3,2.3h-2v7.2h5.2c1.6,0,3.1-0.6,4.2-1.8c1.3-1.3,1.9-2.9,1.9-4.8v-20.4
					c0-0.8-0.1-1.5-0.2-2.1c-0.1-0.7-0.7-1.4-1.7-2c1.2-1.2,1.8-2.7,1.8-4.5v-19.1c0-1.5-0.6-2.9-1.9-4.2
					C432.7,382.5,431,381.8,428.6,381.8z"/>
				<path id="XMLID_750_" class="st1" d="M439.9,441.3v-7c0,0,3.8-0.2,3.8-4.6v-17h7v18.6C450.8,437.2,445.7,441.3,439.9,441.3z"/>
				<path id="XMLID_749_" class="st1" d="M484.4,441.3v-7c0,0-3.8-0.2-3.8-4.6v-17h-7v18.6C473.5,437.2,478.6,441.3,484.4,441.3z"/>
			</g>
		</g>
		<g>
			<path class="st1" d="M15.6,495.2v-27.3h20.3v4.6H21.6v6.5H34v4.6H21.6v11.6H15.6z"/>
			<path class="st1" d="M44.9,495.2v-27.1h6v22.5h14.9v4.6H44.9z"/>
			<path class="st1" d="M74.6,495.2v-27.1h6v22.5h14.9v4.6H74.6z"/>
			<path class="st1" d="M120,495.2h-3.1v-27h3.1V495.2z"/>
			<path class="st1" d="M155,468.2v27h-3.7l-17.2-22.8v22.8H131v-27h3.7l17.2,22.8v-22.8H155z"/>
			<path class="st1" d="M185.8,471.1h-9.7v24.1h-3.2v-24.1h-9.7v-2.9h22.6V471.1z"/>
			<path class="st1" d="M197.1,471.1v9.1h15.5v3h-15.5v9.1h17.3v2.9H194v-27h20.5v2.9H197.1z"/>
			<path class="st1" d="M226.9,495.2h-3.1v-27H237c5.7,0,9.4,3.3,9.4,8.5c0,5.2-3.6,7-6.7,7.7l7.3,10.9h-3.7l-6.7-10.4h-9.7V495.2z
				 M226.9,481.9h9.6c3,0,6.8-1.1,6.8-5.3c0-3.4-2.6-5.6-6.6-5.6h-9.8V481.9z"/>
			<path class="st1" d="M280,468.2v27h-3.7l-17.2-22.8v22.8H256v-27h3.7l17.2,22.8v-22.8H280z"/>
			<path class="st1" d="M315.3,495.2h-3.5l-3.4-7.8h-13.8l-3.4,7.8h-3.5l11.8-27h3.9L315.3,495.2z M307.2,484.5l-5.7-13.2l-5.7,13.2
				H307.2z"/>
			<path class="st1" d="M340.3,471.1h-9.7v24.1h-3.2v-24.1h-9.7v-2.9h22.6V471.1z"/>
			<path class="st1" d="M351.6,495.2h-3.1v-27h3.1V495.2z"/>
			<path class="st1" d="M389.1,481.7c0,7.7-5.7,13.8-14.1,13.8c-8.4,0-14.1-6.2-14.1-13.8s5.7-13.8,14.1-13.8
				C383.4,467.8,389.1,474,389.1,481.7z M385.9,481.7c0-6.1-4.2-10.9-11-10.9c-6.8,0-11,4.8-11,10.9c0,6.1,4.2,10.9,11,10.9
				C381.7,492.5,385.9,487.8,385.9,481.7z"/>
			<path class="st1" d="M422.3,468.2v27h-3.7l-17.2-22.8v22.8h-3.1v-27h3.7l17.2,22.8v-22.8H422.3z"/>
			<path class="st1" d="M457.6,495.2h-3.5l-3.4-7.8H437l-3.4,7.8h-3.5l11.8-27h3.9L457.6,495.2z M449.5,484.5l-5.7-13.2l-5.7,13.2
				H449.5z"/>
			<path class="st1" d="M468.5,468.2v24.1h15.2v2.9h-18.3v-27H468.5z"/>
		</g>
	</g>
</g>
</svg>
