<?xml version="1.0" encoding="utf-8"?>
<!-- Generator: Adobe Illustrator 16.0.0, SVG Export Plug-In . SVG Version: 6.00 Build 0)  -->
<!DOCTYPE svg PUBLIC "-//W3C//DTD SVG 1.1//EN" "http://www.w3.org/Graphics/SVG/1.1/DTD/svg11.dtd">
<svg version="1.1" id="图层_1" xmlns="http://www.w3.org/2000/svg" xmlns:xlink="http://www.w3.org/1999/xlink" x="0px" y="0px"
	 width="120px" height="120px" viewBox="0 0 120 120" enable-background="new 0 0 120 120" xml:space="preserve">
<g>
	<path fill="#FFFFFF" d="M49.501,84c-0.25,0-0.5-0.063-0.727-0.188c-0.477-0.264-0.773-0.767-0.773-1.312v-45
		c0-0.545,0.296-1.048,0.773-1.312c0.478-0.264,1.061-0.249,1.522,0.04l35.999,22.5C86.733,59.002,87,59.483,87,60
		s-0.267,0.998-0.705,1.272l-35.999,22.5C50.053,83.924,49.777,84,49.501,84z M51.001,40.207v39.587L82.67,60L51.001,40.207z"/>
</g>
<g opacity="0.6">
	<path fill="#FFFFFF" d="M60.001,3C91.431,3,117,28.57,117,60s-25.569,57-56.999,57C28.57,117,3,91.43,3,60S28.57,3,60.001,3
		 M60.001,0C26.863,0,0,26.863,0,60c0,33.139,26.863,60,60.001,60C93.138,120,120,93.139,120,60C120,26.863,93.138,0,60.001,0
		L60.001,0z"/>
</g>
</svg>
